<svg width="264" height="114" viewBox="0 0 264 114" fill="none" xmlns="http://www.w3.org/2000/svg">
<path d="M33 88H263" stroke="#3F4749" stroke-width="1.5" stroke-linecap="round" stroke-linejoin="round"/>
<path d="M175 60H263" stroke="#3F4749" stroke-width="1.5" stroke-linecap="round" stroke-linejoin="round"/>
<path d="M29.5184 91.3052C31.2207 91.3052 32.6007 89.9295 32.6007 88.2326C32.6007 86.5356 31.2207 85.16 29.5184 85.16C27.816 85.16 26.436 86.5356 26.436 88.2326C26.436 89.9295 27.816 91.3052 29.5184 91.3052Z" stroke="#3F4749" stroke-width="1.5" stroke-linecap="round" stroke-linejoin="round"/>
<path d="M34.899 57.1079H57.1287C58.606 57.1127 60.0657 56.7885 61.4011 56.1588C62.7365 55.5291 63.9139 54.6099 64.8472 53.4685C65.7806 52.327 66.4463 50.992 66.7957 49.5612C67.145 48.1304 67.1693 46.6398 66.8667 45.1984C66.564 43.757 65.9421 42.4013 65.0464 41.2302C64.1507 40.0592 63.0038 39.1024 61.6896 38.4299C60.3753 37.7574 58.927 37.3861 57.4503 37.3432C55.9737 37.3002 54.5061 37.5867 53.1547 38.1818C52.9671 33.8436 51.225 29.7164 48.2449 26.5496C45.2648 23.3827 41.2442 21.3862 36.9132 20.9226C32.5823 20.4589 28.2281 21.5589 24.6414 24.0228C21.0547 26.4867 18.4733 30.1511 17.3659 34.3506C15.745 33.7115 14.0027 33.437 12.2632 33.5465C10.5236 33.656 8.82974 34.1468 7.3024 34.984C5.77505 35.8212 4.45185 36.9841 3.42724 38.3897C2.40262 39.7953 1.70184 41.409 1.37485 43.1157C1.04787 44.8224 1.10274 46.5799 1.53559 48.263C1.96843 49.9461 2.76858 51.5133 3.87891 52.8526C4.98925 54.192 6.38242 55.2706 7.95905 56.0114C9.53567 56.7523 11.2569 57.1371 12.9999 57.1386H22.7081" stroke="#3F4749" stroke-width="1.5" stroke-linecap="round" stroke-linejoin="round"/>
<path d="M152.812 0.980793C153.97 0.706834 155.157 0.567974 156.347 0.567017C159.68 0.567524 162.919 1.66633 165.561 3.6924C168.202 5.71847 170.098 8.55813 170.952 11.7694C172.297 11.2379 173.743 11.0089 175.186 11.0989C176.63 11.189 178.036 11.5957 179.304 12.2902C180.572 12.9847 181.67 13.9497 182.52 15.1164C183.371 16.283 183.952 17.6225 184.223 19.039C184.494 20.4556 184.447 21.9143 184.087 23.3109C183.727 24.7075 183.062 26.0076 182.139 27.1183C181.216 28.2289 180.059 29.1227 178.75 29.7358C177.44 30.3489 176.011 30.6662 174.565 30.6649H166.517" stroke="#3F4749" stroke-width="1.5" stroke-linecap="round" stroke-linejoin="round"/>
<path d="M143.526 7.68539C144.998 5.33121 147.091 3.42543 149.576 2.17612" stroke="#3F4749" stroke-width="1.5" stroke-linecap="round" stroke-linejoin="round"/>
<path d="M132.873 16.0604C134.042 15.1367 135.443 14.5481 136.923 14.3578C138.403 14.1675 139.907 14.3825 141.274 14.98C141.338 13.3868 141.657 11.814 142.219 10.3213" stroke="#3F4749" stroke-width="1.5" stroke-linecap="round" stroke-linejoin="round"/>
<path d="M156.417 30.6726H137.969C136.889 30.6736 135.82 30.4625 134.822 30.0513C133.824 29.6401 132.917 29.0369 132.154 28.2762C131.39 27.5155 130.784 26.6122 130.37 25.6179C129.957 24.6236 129.744 23.5578 129.744 22.4815" stroke="#3F4749" stroke-width="1.5" stroke-linecap="round" stroke-linejoin="round"/>
<path d="M163.742 30.6726H159.176" stroke="#3F4749" stroke-width="1.5" stroke-linecap="round" stroke-linejoin="round"/>
<path d="M114.955 43.3769H88.3749C84.2231 43.3769 80.8574 46.732 80.8574 50.8707V97.5347C80.8574 101.673 84.2231 105.029 88.3749 105.029H114.955C119.107 105.029 122.473 101.673 122.473 97.5347V50.8707C122.473 46.732 119.107 43.3769 114.955 43.3769Z" fill="white" stroke="#3F4749" stroke-width="1.5" stroke-linecap="round" stroke-linejoin="round"/>
<path d="M119.583 54.0353H83.7476V94.3702H119.583V54.0353Z" fill="#6082FF" stroke="#3F4749" stroke-width="1.5" stroke-linecap="round" stroke-linejoin="round"/>
<path d="M101.665 102.454C103.143 102.454 104.34 101.26 104.34 99.7875C104.34 98.3148 103.143 97.1209 101.665 97.1209C100.188 97.1209 98.9902 98.3148 98.9902 99.7875C98.9902 101.26 100.188 102.454 101.665 102.454Z" fill="#EDEDED" stroke="#3F4749" stroke-width="1.5" stroke-linecap="round" stroke-linejoin="round"/>
<path d="M110.812 50.1274C111.385 50.1274 111.85 49.6643 111.85 49.093C111.85 48.5217 111.385 48.0586 110.812 48.0586C110.239 48.0586 109.774 48.5217 109.774 49.093C109.774 49.6643 110.239 50.1274 110.812 50.1274Z" fill="#3F4749" stroke="#3F4749" stroke-width="1.5" stroke-linecap="round" stroke-linejoin="round"/>
<path d="M106.976 47.3843H96.3535V50.8094H106.976V47.3843Z" fill="#C4CBCC" stroke="#3F4749" stroke-width="1.5" stroke-linecap="round" stroke-linejoin="round"/>
<path d="M94.332 76.7543L99.4359 71.6588" stroke="white" stroke-width="1.5" stroke-linecap="round" stroke-linejoin="round"/>
<path d="M103.894 76.7543L108.998 71.6588" stroke="white" stroke-width="1.5" stroke-linecap="round" stroke-linejoin="round"/>
<path d="M97.0913 78.7695L106.238 69.6436" stroke="white" stroke-width="1.5" stroke-linecap="round" stroke-linejoin="round"/>
<path d="M171.675 63.2531C173.377 63.2531 174.757 61.8775 174.757 60.1805C174.757 58.4836 173.377 57.1079 171.675 57.1079C169.972 57.1079 168.592 58.4836 168.592 60.1805C168.592 61.8775 169.972 63.2531 171.675 63.2531Z" stroke="#3F4749" stroke-width="1.5" stroke-linecap="round" stroke-linejoin="round"/>
<path d="M27.8965 108.998L24.1992 112.683" stroke="#3F4749" stroke-width="1.5" stroke-linecap="round" stroke-linejoin="round"/>
<path d="M27.8965 112.683L24.1992 108.998" stroke="#3F4749" stroke-width="1.5" stroke-linecap="round" stroke-linejoin="round"/>
</svg>
